<svg width="64" height="64" viewBox="0 0 64 64" fill="none" xmlns="http://www.w3.org/2000/svg">
<path d="M8 10V13.125C5.76382 14.2993 4 16.3201 4 19C4 21.8576 5.7696 24.2954 8.25 25.375C10.2043 45.1162 18.5917 56 32 56C45.5507 56 53.53 45.7125 55.75 25.4375C58.2448 24.3642 60 21.8679 60 19C60 16.3201 58.2362 14.2993 56 13.125V10H52V14.125V15.75L53.625 16.0625C54.9895 16.3399 56 17.5293 56 19C56 20.4906 54.9603 21.6817 53.5625 21.9375C49.2575 22.2146 46.1587 28.071 43.125 33.75C41.979 35.898 40.249 39.0905 39.375 39.8125C38.363 39.6945 37.3305 38.8605 36.3125 38.0625C35.0225 37.0485 33.69 36 32 36C30.31 36 28.9775 37.0505 27.6875 38.0625C26.6695 38.8625 25.637 39.6945 24.625 39.8125C23.749 39.0905 22.027 35.906 20.875 33.75C17.8413 28.0808 14.7222 22.2142 10.4375 21.9375C9.03975 21.6817 8 20.4906 8 19C8 17.5293 9.0105 16.3399 10.375 16.0625L12 15.75V14.125V10H8ZM23 12C21.3431 12 20 13.3431 20 15C20 16.6569 21.3431 18 23 18C24.6569 18 26 16.6569 26 15C26 13.3431 24.6569 12 23 12ZM41 12C39.3431 12 38 13.3431 38 15C38 16.6569 39.3431 18 41 18C42.6569 18 44 16.6569 44 15C44 13.3431 42.6569 12 41 12ZM32 27C30.3303 26.9978 28.5757 28.1106 27 28.375C25.4243 28.6394 24.1475 28.837 23 29.5L25 33C25.0745 32.957 26.2717 32.5396 27.625 32.3125C28.9783 32.0854 30.6077 31.9357 32 31.9375C33.4156 31.9393 35.0263 32.0831 36.375 32.3125C37.7237 32.5419 38.9469 32.9361 39.0625 33L40.9375 29.5C39.8231 28.8839 38.6293 28.6416 37.0625 28.375C35.4957 28.1084 33.6924 27.0022 32 27Z" fill="#BE7D37"/>
</svg>
