<svg width="512" height="512" viewBox="0 0 512 512" fill="none" xmlns="http://www.w3.org/2000/svg">
<path d="M256 8C119 8 8 119 8 256C8 393 119 504 256 504C393 504 504 393 504 256C504 119 393 8 256 8ZM256 456C145.5 456 56 366.5 56 256C56 145.5 145.5 56 256 56C366.5 56 456 145.5 456 256C456 366.5 366.5 456 256 456ZM317.8 351.6L232.9 289.9C229.8 287.6 228 284 228 280.2V116C228 109.4 233.4 104 240 104H272C278.6 104 284 109.4 284 116V257.7L350.8 306.3C356.2 310.2 357.3 317.7 353.4 323.1L334.6 349C330.7 354.3 323.2 355.5 317.8 351.6Z" fill="black" fill-opacity="0.08"/>
</svg>
