<svg width="208" height="253" viewBox="0 0 208 253" fill="none" xmlns="http://www.w3.org/2000/svg">
<path d="M204.382 243.608C174.582 229.508 176.582 211.108 178.482 204.608C181.282 203.608 183.582 201.308 184.882 198.008C187.382 191.808 186.282 183.908 179.982 181.108C179.282 180.808 178.582 180.408 177.782 180.108L113.782 13.8078C109.882 3.90784 99.3815 -1.79215 88.9815 0.507847C75.6815 3.40785 68.2815 17.7078 73.6815 30.3078L94.9815 78.9078C94.9815 78.9078 109.682 114.408 132.282 118.808L153.682 168.408C108.582 144.208 68.7815 111.708 36.1815 72.7078C25.8815 60.3078 15.6815 60.8079 7.08152 68.0079C-1.31848 75.1079 -3.81847 86.2079 8.38153 99.0079C51.2815 143.708 102.882 178.108 159.982 200.708C162.582 205.908 166.282 214.108 170.382 225.408C176.382 241.808 193.082 249.408 200.982 252.208C203.282 253.008 205.882 251.808 206.782 249.508C207.582 247.108 206.582 244.708 204.382 243.608ZM168.882 184.808C171.282 186.608 171.882 190.008 170.082 192.408C169.882 192.608 169.782 192.808 169.582 193.008C167.782 194.908 164.782 195.208 162.482 193.608C160.082 191.808 159.482 188.408 161.282 186.008C161.282 186.008 161.282 186.008 161.382 185.908C163.082 183.608 166.482 183.108 168.882 184.808Z" fill="#DDDDDD"/>
</svg>
