<svg width="64" height="64" viewBox="0 0 64 64" fill="none" xmlns="http://www.w3.org/2000/svg">
<path d="M44 4L37.6875 7.875L27.625 28.4375L21.875 30.9375C21.9116 30.6292 22 30.3176 22 30C22 25.6054 18.3946 22 14 22C9.60541 22 6 25.6054 6 30C6 34.3946 9.60541 38 14 38C15.0081 38 15.9839 37.783 16.875 37.4375V37.5L24.9375 33.9375L20.5 43L20.5625 43.0625C20.2032 43.969 20 44.9708 20 46C20 49.7969 22.6835 52.9477 26.25 53.75C26.3939 54.3999 26.5995 55.1531 27 55.9375C28.0012 57.8986 30.382 60 34 60V56C31.744 56 31.0928 55.1014 30.5625 54.0625C30.4848 53.9104 30.4328 53.7756 30.375 53.625C33.629 52.6095 36 49.5737 36 46C36 41.6054 32.3946 38 28 38C27.7682 38 27.5395 38.0429 27.3125 38.0625L30.5625 31.5L30.625 31.4375L33.25 25.9375L44 4ZM56 16L36.125 24.6875L33.4375 30.1875L51.75 22.125L56 16ZM14 26C16.2328 26 18 27.7672 18 30C18 32.2328 16.2328 34 14 34C11.7672 34 10 32.2328 10 30C10 27.7672 11.7672 26 14 26ZM28 42C30.2328 42 32 43.7672 32 46C32 48.2328 30.2328 50 28 50C25.7672 50 24 48.2328 24 46C24 45.7209 24.0098 45.4495 24.0625 45.1875C24.4313 43.3534 26.0463 42 28 42Z" fill="#BE7D37"/>
</svg>
